HIERARCHY
ROOT	RokokoGuy_Hips
{
	OFFSET	0.000	0.000	0.000
	CHANNELS	6	Xposition	Yposition	Zposition	Yrotation	Xrotation	Zrotation
	JOINT	RokokoGuy_LeftUpLeg
	{
		OFFSET	9.374	-0.000	0.020
		CHANNELS	3	Yrotation	Xrotation	Zrotation
		JOINT	RokokoGuy_LeftLeg
		{
			OFFSET	-0.000	-44.979	-0.000
			CHANNELS	3	Yrotation	Xrotation	Zrotation
			JOINT	RokokoGuy_LeftFoot
			{
				OFFSET	0.000	-42.021	-0.000
				CHANNELS	3	Yrotation	Xrotation	Zrotation
				JOINT	RokokoGuy_LeftToe
				{
					OFFSET	-0.000	-15.902	9.693
					CHANNELS	3	Yrotation	Xrotation	Zrotation
					End Site
					{
						OFFSET	0.000	-7.786	0.000
					}
				}
			}
		}
	}
	JOINT	RokokoGuy_RightUpLeg
	{
		OFFSET	-9.375	-0.000	0.020
		CHANNELS	3	Yrotation	Xrotation	Zrotation
		JOINT	RokokoGuy_RightLeg
		{
			OFFSET	0.000	-44.979	0.000
			CHANNELS	3	Yrotation	Xrotation	Zrotation
			JOINT	RokokoGuy_RightFoot
			{
				OFFSET	-0.000	-42.021	0.000
				CHANNELS	3	Yrotation	Xrotation	Zrotation
				JOINT	RokokoGuy_RightToe
				{
					OFFSET	-0.000	-15.902	9.693
					CHANNELS	3	Yrotation	Xrotation	Zrotation
					End Site
					{
						OFFSET	0.000	-7.786	0.000
					}
				}
			}
		}
	}
	JOINT	RokokoGuy_Spine
	{
		OFFSET	-0.000	9.639	0.000
		CHANNELS	3	Yrotation	Xrotation	Zrotation
		JOINT	RokokoGuy_Spine2
		{
			OFFSET	0.000	-27.279	-0.000
			CHANNELS	3	Yrotation	Xrotation	Zrotation
			JOINT	RokokoGuy_LeftShoulder
			{
				OFFSET	-3.511	-26.082	0.021
				CHANNELS	3	Yrotation	Xrotation	Zrotation
				JOINT	RokokoGuy_LeftArm
				{
					OFFSET	0.000	-21.504	0.000
					CHANNELS	3	Yrotation	Xrotation	Zrotation
					JOINT	RokokoGuy_LeftForeArm
					{
						OFFSET	-0.000	-27.370	-0.000
						CHANNELS	3	Yrotation	Xrotation	Zrotation
						JOINT	RokokoGuy_LeftHand
						{
							OFFSET	-0.000	-24.640	-0.000
							CHANNELS	3	Yrotation	Xrotation	Zrotation
							End Site
							{
								OFFSET	-0.000	-17.990	0.000
							}
							JOINT	RokokoGuy_LeftIndex01
							{
								OFFSET	2.865	-8.306	0.000
								CHANNELS	3	Yrotation	Xrotation	Zrotation
								JOINT	RokokoGuy_LeftIndex02
								{
									OFFSET	-0.000	-3.912	0.000
									CHANNELS	3	Yrotation	Xrotation	Zrotation
									JOINT	RokokoGuy_LeftIndex03
									{
										OFFSET	0.000	-2.512	0.000
										CHANNELS	3	Yrotation	Xrotation	Zrotation
										End Site
										{
											OFFSET	0.000	-2.051	0.000
										}
									}
								}
							}
							JOINT	RokokoGuy_LeftMiddle01
							{
								OFFSET	0.881	-8.915	0.000
								CHANNELS	3	Yrotation	Xrotation	Zrotation
								JOINT	RokokoGuy_LeftMiddle02
								{
									OFFSET	-0.000	-4.036	0.000
									CHANNELS	3	Yrotation	Xrotation	Zrotation
									JOINT	RokokoGuy_LeftMiddle03
									{
										OFFSET	0.000	-2.608	0.000
										CHANNELS	3	Yrotation	Xrotation	Zrotation
										End Site
										{
											OFFSET	0.000	-2.530	0.000
										}
									}
								}
							}
							JOINT	RokokoGuy_LeftPinky01
							{
								OFFSET	-2.613	-8.003	0.000
								CHANNELS	3	Yrotation	Xrotation	Zrotation
								JOINT	RokokoGuy_LeftPinky02
								{
									OFFSET	-0.000	-2.860	0.000
									CHANNELS	3	Yrotation	Xrotation	Zrotation
									JOINT	RokokoGuy_LeftPinky03
									{
										OFFSET	0.000	-1.720	0.000
										CHANNELS	3	Yrotation	Xrotation	Zrotation
										End Site
										{
											OFFSET	0.000	-1.976	0.000
										}
									}
								}
							}
							JOINT	RokokoGuy_LeftRing01
							{
								OFFSET	-0.906	-8.765	0.000
								CHANNELS	3	Yrotation	Xrotation	Zrotation
								JOINT	RokokoGuy_LeftRing02
								{
									OFFSET	-0.000	-3.491	0.000
									CHANNELS	3	Yrotation	Xrotation	Zrotation
									JOINT	RokokoGuy_LeftRing03
									{
										OFFSET	0.000	-2.373	0.000
										CHANNELS	3	Yrotation	Xrotation	Zrotation
										End Site
										{
											OFFSET	0.000	-2.368	0.000
										}
									}
								}
							}
							JOINT	RokokoGuy_LeftThumb01
							{
								OFFSET	2.146	-2.555	2.160
								CHANNELS	3	Yrotation	Xrotation	Zrotation
								JOINT	RokokoGuy_LeftThumb02
								{
									OFFSET	0.000	-3.912	-0.000
									CHANNELS	3	Yrotation	Xrotation	Zrotation
									JOINT	RokokoGuy_LeftThumb03
									{
										OFFSET	0.000	-2.512	0.000
										CHANNELS	3	Yrotation	Xrotation	Zrotation
										End Site
										{
											OFFSET	0.000	-2.704	-0.000
										}
									}
								}
							}
						}
					}
				}
			}
			JOINT	RokokoGuy_Neck
			{
				OFFSET	-0.000	-26.082	0.015
				CHANNELS	3	Yrotation	Xrotation	Zrotation
				JOINT	RokokoGuy_Head
				{
					OFFSET	-0.000	-9.000	0.006
					CHANNELS	3	Yrotation	Xrotation	Zrotation
					End Site
					{
						OFFSET	-0.000	-21.000	-0.001
					}
				}
			}
			JOINT	RokokoGuy_RightShoulder
			{
				OFFSET	3.511	-26.082	0.021
				CHANNELS	3	Yrotation	Xrotation	Zrotation
				JOINT	RokokoGuy_RightArm
				{
					OFFSET	-0.000	-21.421	-1.874
					CHANNELS	3	Yrotation	Xrotation	Zrotation
					JOINT	RokokoGuy_RightForeArm
					{
						OFFSET	0.000	-27.370	0.000
						CHANNELS	3	Yrotation	Xrotation	Zrotation
						JOINT	RokokoGuy_RightHand
						{
							OFFSET	-0.000	-24.640	-0.000
							CHANNELS	3	Yrotation	Xrotation	Zrotation
							End Site
							{
								OFFSET	-0.000	-17.990	0.000
							}
							JOINT	RokokoGuy_RightIndex005
							{
								OFFSET	-2.865	-8.306	0.000
								CHANNELS	3	Yrotation	Xrotation	Zrotation
								JOINT	RokokoGuy_RightIndex006
								{
									OFFSET	-0.000	-3.913	0.000
									CHANNELS	3	Yrotation	Xrotation	Zrotation
									JOINT	RokokoGuy_RightIndex007
									{
										OFFSET	0.000	-2.512	0.000
										CHANNELS	3	Yrotation	Xrotation	Zrotation
										End Site
										{
											OFFSET	0.000	-2.051	0.000
										}
									}
								}
							}
							JOINT	RokokoGuy_RightMiddle004
							{
								OFFSET	-0.881	-8.915	0.000
								CHANNELS	3	Yrotation	Xrotation	Zrotation
								JOINT	RokokoGuy_RightMiddle005
								{
									OFFSET	-0.000	-4.036	0.000
									CHANNELS	3	Yrotation	Xrotation	Zrotation
									JOINT	RokokoGuy_RightMiddle006
									{
										OFFSET	0.000	-2.608	0.000
										CHANNELS	3	Yrotation	Xrotation	Zrotation
										End Site
										{
											OFFSET	0.000	-2.530	0.000
										}
									}
								}
							}
							JOINT	RokokoGuy_RightPinky004
							{
								OFFSET	2.613	-8.004	0.000
								CHANNELS	3	Yrotation	Xrotation	Zrotation
								JOINT	RokokoGuy_RightPinky005
								{
									OFFSET	-0.000	-2.860	0.000
									CHANNELS	3	Yrotation	Xrotation	Zrotation
									JOINT	RokokoGuy_RightPinky006
									{
										OFFSET	0.000	-1.720	0.000
										CHANNELS	3	Yrotation	Xrotation	Zrotation
										End Site
										{
											OFFSET	0.000	-1.977	0.000
										}
									}
								}
							}
							JOINT	RokokoGuy_RightRing004
							{
								OFFSET	0.906	-8.765	0.000
								CHANNELS	3	Yrotation	Xrotation	Zrotation
								JOINT	RokokoGuy_RightRing005
								{
									OFFSET	-0.000	-3.491	0.000
									CHANNELS	3	Yrotation	Xrotation	Zrotation
									JOINT	RokokoGuy_RightRing006
									{
										OFFSET	0.000	-2.373	0.000
										CHANNELS	3	Yrotation	Xrotation	Zrotation
										End Site
										{
											OFFSET	0.000	-2.368	0.000
										}
									}
								}
							}
							JOINT	RokokoGuy_RightThumb004
							{
								OFFSET	-2.146	-2.555	2.160
								CHANNELS	3	Yrotation	Xrotation	Zrotation
								JOINT	RokokoGuy_RightThumb005
								{
									OFFSET	0.000	-3.913	0.000
									CHANNELS	3	Yrotation	Xrotation	Zrotation
									JOINT	RokokoGuy_RightThumb006
									{
										OFFSET	0.000	-2.512	0.000
										CHANNELS	3	Yrotation	Xrotation	Zrotation
										End Site
										{
											OFFSET	-0.000	-2.704	0.000
										}
									}
								}
							}
						}
					}
				}
			}
		}
	}
}
MOTION
Frames:	4
Frame Time:	0.033
-536.540	90.269	165.019	256.343	348.773	358.876	258.676	3.891	19.684	357.052	359.920	338.248	339.386	81.394	65.484	-0.000	-0.000	-0.000	93.716	357.644	7.559	5.803	338.792	44.294	124.958	82.373	35.923	-0.000	-0.000	-0.000	1.884	7.116	181.334	358.116	352.884	1.334	359.815	2.018	272.665	9.672	277.701	254.243	6.972	359.154	356.236	0.072	5.295	0.400	-0.000	0.000	-0.000	-0.000	-0.000	-0.000	-0.000	-0.000	-0.000	-0.000	0.000	-0.000	-0.000	-0.000	-0.000	-0.000	-0.000	-0.000	-0.000	0.000	-0.000	-0.000	-0.000	-0.000	-0.000	-0.000	-0.000	-0.000	0.000	-0.000	-0.000	-0.000	-0.000	-0.000	-0.000	-0.000	314.950	14.813	35.071	0.000	0.000	-0.000	0.000	0.000	-0.000	1.421	356.014	1.871	1.421	356.014	1.871	4.583	2.097	90.336	92.199	275.373	353.146	4.460	357.307	344.536	12.694	358.968	3.006	0.000	0.000	0.000	0.000	-0.000	-0.000	0.000	-0.000	-0.000	0.000	0.000	0.000	0.000	-0.000	-0.000	0.000	-0.000	-0.000	0.000	0.000	0.000	0.000	-0.000	-0.000	0.000	-0.000	-0.000	0.000	0.000	0.000	0.000	-0.000	-0.000	0.000	-0.000	-0.000	45.050	14.813	324.929	0.000	-0.000	-0.000	0.000	-0.000	-0.000	
-539.535	89.274	163.748	255.817	347.316	0.588	257.895	1.746	17.280	358.479	359.419	336.164	335.570	84.244	62.460	-0.000	-0.000	-0.000	94.336	359.942	4.505	357.083	339.798	57.167	97.480	75.262	4.399	-0.000	-0.000	-0.000	1.645	7.792	180.253	358.355	352.207	0.253	0.465	2.102	273.018	6.777	276.751	257.819	7.334	358.838	356.885	359.014	5.120	0.349	-0.000	0.000	-0.000	-0.000	-0.000	-0.000	-0.000	-0.000	-0.000	-0.000	0.000	-0.000	-0.000	-0.000	-0.000	-0.000	-0.000	-0.000	-0.000	0.000	-0.000	-0.000	-0.000	-0.000	-0.000	-0.000	-0.000	-0.000	0.000	-0.000	-0.000	-0.000	-0.000	-0.000	-0.000	-0.000	314.950	14.813	35.071	0.000	0.000	-0.000	0.000	0.000	-0.000	1.589	355.988	2.059	1.589	355.988	2.059	5.001	1.983	90.330	89.267	274.325	357.811	3.905	357.846	345.332	12.282	359.752	4.576	0.000	0.000	0.000	0.000	-0.000	-0.000	0.000	-0.000	-0.000	0.000	0.000	0.000	0.000	-0.000	-0.000	0.000	-0.000	-0.000	0.000	0.000	0.000	0.000	-0.000	-0.000	0.000	-0.000	-0.000	0.000	0.000	0.000	0.000	-0.000	-0.000	0.000	-0.000	-0.000	45.050	14.813	324.929	0.000	-0.000	-0.000	0.000	-0.000	-0.000	
-540.370	90.503	163.150	254.607	347.217	1.472	259.112	2.128	14.721	358.524	357.471	336.153	349.302	87.033	76.157	-0.000	-0.000	-0.000	92.999	2.549	358.774	355.474	339.396	66.486	77.460	68.118	344.943	-0.000	-0.000	-0.000	1.011	8.213	179.631	358.989	351.787	359.631	0.253	2.981	273.001	358.205	275.558	267.658	7.609	358.017	358.037	359.288	5.087	359.567	-0.000	0.000	-0.000	-0.000	-0.000	-0.000	-0.000	-0.000	-0.000	-0.000	0.000	-0.000	-0.000	-0.000	-0.000	-0.000	-0.000	-0.000	-0.000	0.000	-0.000	-0.000	-0.000	-0.000	-0.000	-0.000	-0.000	-0.000	0.000	-0.000	-0.000	-0.000	-0.000	-0.000	-0.000	-0.000	314.950	14.813	35.071	0.000	0.000	-0.000	0.000	0.000	-0.000	1.155	356.335	1.990	1.155	356.335	1.990	4.089	2.539	90.552	95.872	274.270	352.214	1.892	357.171	347.067	13.882	0.074	4.200	0.000	0.000	0.000	0.000	-0.000	-0.000	0.000	-0.000	-0.000	0.000	0.000	0.000	0.000	-0.000	-0.000	0.000	-0.000	-0.000	0.000	0.000	0.000	0.000	-0.000	-0.000	0.000	-0.000	-0.000	0.000	0.000	0.000	0.000	-0.000	-0.000	0.000	-0.000	-0.000	45.050	14.813	324.929	0.000	-0.000	-0.000	0.000	-0.000	-0.000	
-536.803	91.959	164.834	252.547	347.690	2.498	259.168	2.151	11.734	2.279	357.269	336.612	80.876	88.585	169.679	-0.000	-0.000	-0.000	86.007	4.412	353.505	359.593	339.679	72.265	80.285	76.512	347.051	-0.000	-0.000	-0.000	0.438	8.099	179.158	359.562	351.901	359.158	359.934	2.931	272.928	347.388	275.258	280.212	7.075	357.235	359.019	359.805	5.254	1.363	-0.000	0.000	-0.000	-0.000	-0.000	-0.000	-0.000	-0.000	-0.000	-0.000	0.000	-0.000	-0.000	-0.000	-0.000	-0.000	-0.000	-0.000	-0.000	0.000	-0.000	-0.000	-0.000	-0.000	-0.000	-0.000	-0.000	-0.000	0.000	-0.000	-0.000	-0.000	-0.000	-0.000	-0.000	-0.000	314.950	14.813	35.071	0.000	0.000	-0.000	0.000	0.000	-0.000	0.448	356.315	1.648	0.448	356.316	1.648	4.706	2.718	90.939	112.190	274.860	336.205	2.500	357.601	349.210	12.909	358.252	4.442	0.000	0.000	0.000	0.000	-0.000	-0.000	0.000	-0.000	-0.000	0.000	0.000	0.000	0.000	-0.000	-0.000	0.000	-0.000	-0.000	0.000	0.000	0.000	0.000	-0.000	-0.000	0.000	-0.000	-0.000	0.000	0.000	0.000	0.000	-0.000	-0.000	0.000	-0.000	-0.000	45.050	14.813	324.929	0.000	-0.000	-0.000	0.000	-0.000	-0.000	
